<svg width="1600" height="520" viewBox="0 0 1600 520" fill="none" xmlns="http://www.w3.org/2000/svg">
  <defs>
    <radialGradient id="glow" cx="0" cy="0" r="1" gradientUnits="userSpaceOnUse" gradientTransform="translate(1160 250) rotate(180) scale(520 340)">
      <stop stop-color="#B00020" stop-opacity="0.42"/>
      <stop offset="1" stop-color="#B00020" stop-opacity="0"/>
    </radialGradient>
    <linearGradient id="card" x1="0" y1="0" x2="1" y2="1">
      <stop stop-color="#31030C"/>
      <stop offset="1" stop-color="#130D0F"/>
    </linearGradient>
    <filter id="shadow" x="-30%" y="-30%" width="160%" height="160%">
      <feDropShadow dx="0" dy="18" stdDeviation="28" flood-color="#000000" flood-opacity="0.45"/>
    </filter>
  </defs>

  <rect width="1600" height="520" rx="32" fill="#0D0B0C"/>
  <rect width="1600" height="520" rx="32" fill="url(#glow)"/>

  <circle cx="95" cy="88" r="5" fill="#B00020"/>
  <text x="118" y="96" fill="#D9D2D4" font-size="24" font-family="Arial, Helvetica, sans-serif">
    Software a medida · Desarrollo web en Argentina
  </text>

  <text x="90" y="185" fill="#F6F1E8" font-size="66" font-weight="700" font-family="Arial, Helvetica, sans-serif">
    Sistemas web
  </text>
  <text x="90" y="258" fill="#B00020" font-size="66" font-weight="700" font-style="italic" font-family="Arial, Helvetica, sans-serif">
    inteligentes
  </text>
  <text x="430" y="258" fill="#F6F1E8" font-size="66" font-weight="700" font-family="Arial, Helvetica, sans-serif">
    para
  </text>
  <text x="90" y="331" fill="#F6F1E8" font-size="66" font-weight="700" font-family="Arial, Helvetica, sans-serif">
    vender más, ahorrar tiempo
  </text>
  <text x="90" y="404" fill="#F6F1E8" font-size="66" font-weight="700" font-family="Arial, Helvetica, sans-serif">
    y operar mejor.
  </text>
  <rect x="90" y="426" width="272" height="4" fill="#B00020"/>

  <g filter="url(#shadow)">
    <rect x="1060" y="92" width="360" height="112" rx="18" fill="url(#card)" stroke="#5A0A1A"/>
    <circle cx="1092" cy="126" r="5" fill="#B00020"/>
    <text x="1112" y="133" fill="#A99FA2" font-size="15" letter-spacing="3" font-family="Arial, Helvetica, sans-serif">SISTEMAS PERSONALIZADOS</text>
    <text x="1092" y="171" fill="#F6F1E8" font-size="22" font-weight="700" font-family="Arial, Helvetica, sans-serif">Escuchamos → Entendemos → Creamos</text>
  </g>

  <g filter="url(#shadow)">
    <rect x="932" y="252" width="300" height="104" rx="18" fill="#120E0F" stroke="#312629"/>
    <circle cx="962" cy="285" r="5" fill="#D8CFD1"/>
    <text x="982" y="292" fill="#A99FA2" font-size="15" letter-spacing="3" font-family="Arial, Helvetica, sans-serif">INTEGRACIONES</text>
    <text x="962" y="329" fill="#F6F1E8" font-size="22" font-weight="700" font-family="Arial, Helvetica, sans-serif">APIs · Automatización · IA</text>
  </g>

  <g>
    <rect x="1260" y="386" width="230" height="52" rx="26" fill="#120E0F" stroke="#3A2C30"/>
    <text x="1308" y="419" fill="#D8CFD1" font-size="17" font-family="Arial, Helvetica, sans-serif">SISTEMAS A MEDIDA</text>
  </g>

  <path d="M1220 206 C1300 225, 1330 270, 1280 320" stroke="#6E0A1C" stroke-width="2" stroke-dasharray="8 10" opacity="0.65"/>
  <path d="M1135 356 C1180 396, 1210 410, 1260 410" stroke="#6E0A1C" stroke-width="2" stroke-dasharray="8 10" opacity="0.65"/>

  <circle cx="1510" cy="68" r="4" fill="#F6F1E8"/>
  <circle cx="1460" cy="470" r="4" fill="#F6F1E8"/>
</svg>
